<svg version="1.1" id="Layer_1" xmlns="http://www.w3.org/2000/svg" xmlns:xlink="http://www.w3.org/1999/xlink" x="0px" y="0px" viewBox="0 0 500 500" style="width: 151px;" xml:space="preserve" data-imageid="online-shopping-13-61aac" imageName="Online Shopping" class="illustrations_image">
<style type="text/css">
	.st0_online-shopping-13-61aac{fill:#FFC98B;}
	.st1_online-shopping-13-61aac{fill:url(#SVGID_1_);}
	.st2_online-shopping-13-61aac{fill:url(#SVGID_00000087390270941852880080000010518388849663596674_);}
	.st3_online-shopping-13-61aac{fill:#614CD4;}
	.st4_online-shopping-13-61aac{fill:#124577;}
	.st5_online-shopping-13-61aac{fill:#FF3174;}
	.st6_online-shopping-13-61aac{fill:#F7931E;}
	.st7_online-shopping-13-61aac{fill:#FFB72F;}
	.st8_online-shopping-13-61aac{fill:#FFE8D2;}
	.st9_online-shopping-13-61aac{fill:#68E1FD;}
	.st10_online-shopping-13-61aac{fill:#FFFFFF;}
	.st11_online-shopping-13-61aac{fill:#42210B;}
	.st12_online-shopping-13-61aac{opacity:0.51;fill:#124577;enable-background:new    ;}
</style>
<polygon id="Base_online-shopping-13-61aac" class="st0_online-shopping-13-61aac" points="27.4,332.7 203.8,433.7 472.6,277.4 296.5,175.7 "/>
<g id="Shadow_online-shopping-13-61aac">
	
		<linearGradient id="SVGID_1_-online-shopping-13-61aac" gradientUnits="userSpaceOnUse" x1="241.7971" y1="-335.7919" x2="281.6171" y2="-398.0519" gradientTransform="matrix(1 0 0 1 0 686.58)">
		<stop offset="1.000000e-02" style="stop-color:#42210B;stop-opacity:0"/>
		<stop offset="1" style="stop-color:#42210B"/>
	</linearGradient>
	<path class="st1_online-shopping-13-61aac" d="M240.4,369.8l58.5-48.8l-22.2-12.8l-72.5,41.7C213.2,355.5,231.6,364.1,240.4,369.8z"/>
	
		<linearGradient id="SVGID_00000107561334526325911680000010944033968423257472_-online-shopping-13-61aac" gradientUnits="userSpaceOnUse" x1="323.1343" y1="-371.9408" x2="362.6943" y2="-433.8108" gradientTransform="matrix(1 0 0 1 0 686.58)">
		<stop offset="1.000000e-02" style="stop-color:#42210B;stop-opacity:0"/>
		<stop offset="1" style="stop-color:#42210B"/>
	</linearGradient>
	<path style="fill:url(#SVGID_00000107561334526325911680000010944033968423257472_);" d="M332.5,334.2l65.5-37.5l-57.8-36.1&#10;&#9;&#9;l-72.5,41.7C276.6,307.7,323.6,328.5,332.5,334.2z"/>
</g>
<g id="Credit_Card_online-shopping-13-61aac">
	<path class="st3_online-shopping-13-61aac" d="M138.4,301.5l-57.3,34.3c-2.3,1.4-3.1,4.4-1.7,6.7c0.4,0.7,1,1.3,1.7,1.7L183.9,404c4.1,2.4,9.2,2.2,13.2-0.5&#10;&#9;&#9;l50.1-34.5c3.1-2.1,4-6.4,1.8-9.5c-0.6-0.9-1.4-1.6-2.3-2.1l-98-56.1C145.5,299.5,141.6,299.6,138.4,301.5z"/>
	<polygon class="st4_online-shopping-13-61aac" points="89.2,331 204.6,398 219.7,387.7 104.4,321.9 &#9;"/>
	<ellipse class="st4_online-shopping-13-61aac" cx="224" cy="363.6" rx="10.6" ry="6.1"/>
	<ellipse class="st5_online-shopping-13-61aac" cx="215.4" cy="358.5" rx="10.6" ry="6.1"/>
</g>
<g id="Stacked_Boxes_online-shopping-13-61aac">
	<path class="st6_online-shopping-13-61aac" d="M361.2,280.6v-33.3l29.8-16.7v33L361.2,280.6z"/>
	<path class="st7_online-shopping-13-61aac" d="M361.2,247.3l-29-16.7c0,0-0.8,33.6,0,34.1s29,15.9,29,15.9V247.3z"/>
	<polygon class="st7_online-shopping-13-61aac" points="332.2,230.7 361.2,212.9 391,230.7 361.2,247.3 &#9;"/>
	<polygon class="st8_online-shopping-13-61aac" points="343.3,223.9 373.5,240.5 373.5,257.9 382.1,253.5 382.1,235.6 352,218.6 &#9;"/>
	<path class="st6_online-shopping-13-61aac" d="M393.7,298.7v-33.3l29.8-16.6v33L393.7,298.7z"/>
	<path class="st7_online-shopping-13-61aac" d="M393.7,265.5l-29-16.6c0,0-0.8,33.6,0,34.1s29,15.8,29,15.8V265.5z"/>
	<polygon class="st7_online-shopping-13-61aac" points="364.7,248.8 393.7,231.1 423.5,248.8 393.7,265.5 &#9;"/>
	<polygon class="st8_online-shopping-13-61aac" points="375.7,242.1 405.9,258.6 405.9,276 414.6,271.6 414.6,253.8 384.4,236.8 &#9;"/>
	<path class="st6_online-shopping-13-61aac" d="M380,258.8v-33.3l29.8-16.6v33L380,258.8z"/>
	<path class="st7_online-shopping-13-61aac" d="M380,225.5l-29-16.6c0,0-0.8,33.6,0,34.1s29,15.8,29,15.8V225.5z"/>
	<polygon class="st7_online-shopping-13-61aac" points="351.1,208.9 380,191.1 409.9,208.9 380,225.5 &#9;"/>
	<polygon class="st8_online-shopping-13-61aac" points="362.1,202.1 392.3,218.7 392.3,236 401,231.7 401,213.8 370.8,196.8 &#9;"/>
</g>
<g id="Online_Shop_online-shopping-13-61aac">
	<path class="st9_online-shopping-13-61aac targetColor" d="M250.3,66.1c-16.6,9.9-57.8,34.2-70.1,41.3c-2.1,1.2-3.4,3.5-3.4,6v169.1c-0.3,3.5,3.6,6.6,6.8,4.8l69.2-39.4&#10;&#9;&#9;c2.8-1.3,4.5-4.1,4.6-7.1V70.1c0-2.6-2.1-4.7-4.7-4.7C251.9,65.5,251,65.7,250.3,66.1L250.3,66.1z" style="fill: rgb(115, 229, 255);"/>
	<path class="st4_online-shopping-13-61aac" d="M256.9,68.1l-22,12.7v4.7c0,0.8-0.4,1.6-1.1,2l-16.9,9.7c-0.6,0.5-1.5,0.3-2-0.3c0,0,0,0,0,0&#10;&#9;&#9;c-0.2-0.3-0.3-0.6-0.2-0.9v-3.5L183,111c-0.6,0.4-1,1-1,1.7v169c0,0.8,0.7,1.4,1.5,1.3c0,0,0,0,0,0c0.2,0,0.4-0.1,0.5-0.1&#10;&#9;&#9;l73.3-42.5c0.2,2.7-1,5.3-3.2,6.7c-3.8,2.4-70.6,40.2-70.6,40.2s-5.3,2.4-6.8-3.9v-170c0-2.2,1-4.4,2.8-5.7&#10;&#9;&#9;c3.1-2.2,70.7-41.8,70.7-41.8c2.3-1.3,5.2-0.5,6.5,1.8c0,0,0,0,0,0C256.9,67.9,256.9,68,256.9,68.1z"/>
	<path class="st5_online-shopping-13-61aac" d="M183,111c0,0,16.5,6.9,16.2,37.3l-20-10.3v-27H183z"/>
	<path class="st5_online-shopping-13-61aac" d="M212,125.9c-2-7.3-27.8-19-27.8-19l-5.1,2.8v9.5c5.6,2.8,12.3,7.1,15.7,12.1c6.4,9.6,3,16.1,3,16.1&#10;&#9;&#9;c0.1,0.5,6.3,3.4,11.5,0S214.1,133.2,212,125.9z"/>
	<path class="st8_online-shopping-13-61aac" d="M268.4,108.1c0,0,3.4-6.5-3-16s-25-16.3-25-16.3l14.5-8.2c0,0,25.7,11.7,27.8,19s2.5,18.2-2.7,21.6&#10;&#9;&#9;S268.4,108.1,268.4,108.1z"/>
	<path class="st5_online-shopping-13-61aac" d="M253.7,116.1c0,0,3.4-6.5-3-16s-25-16.3-25-16.3l14.5-8.2c0,0,25.7,11.7,27.8,19s2.6,18.3-2.7,21.6&#10;&#9;&#9;S253.7,116.1,253.7,116.1z"/>
	<path class="st8_online-shopping-13-61aac" d="M239.6,124.2c0,0,3.4-6.5-3-16s-25-16.3-25-16.3l14.4-8.2c0,0,25.7,11.7,27.8,19s2.6,18.3-2.7,21.6&#10;&#9;&#9;S239.6,124.2,239.6,124.2z"/>
	<path class="st5_online-shopping-13-61aac" d="M225.7,131.9c0,0,3.4-6.5-3-16s-25-16.3-25-16.3l14.5-8.2c0,0,25.7,11.7,27.8,19s2.6,18.3-2.7,21.6&#10;&#9;&#9;S225.7,131.9,225.7,131.9z"/>
	<path class="st8_online-shopping-13-61aac" d="M213,140.9c0,0,1.9-7.4-4.6-17s-25-16.3-25-16.3l14.5-8.2c0,0,25.7,11.7,27.8,19s2.6,18.2-2.6,21.6&#10;&#9;&#9;C220,141.9,216.3,142.3,213,140.9z"/>
	<path class="st10_online-shopping-13-61aac" d="M199.8,160.4v36.2c0,2.6,2.1,4.7,4.7,4.8c0.9,0,1.7-0.2,2.5-0.7l34.3-19.8c2.2-1.3,3.5-3.6,3.5-6.1v-36.6&#10;&#9;&#9;c0-2.6-2.1-4.7-4.7-4.7c0,0,0,0,0,0c-0.9,0-1.7,0.2-2.4,0.7l-34.4,20.4C201.1,155.8,199.8,158,199.8,160.4z"/>
	<path class="st10_online-shopping-13-61aac" d="M199.8,214.2v36.2c0,2.6,2.1,4.7,4.7,4.7c0.9,0,1.7-0.2,2.4-0.7l34.3-19.8c2.2-1.3,3.5-3.6,3.5-6.1v-36.6&#10;&#9;&#9;c0-2.6-2.1-4.7-4.7-4.7c0,0,0,0,0,0c-0.9,0-1.7,0.2-2.4,0.7l-34.4,20.4C201.1,209.5,199.8,211.7,199.8,214.2z"/>
	<polygon class="st4_online-shopping-13-61aac" points="217.1,155.7 229.6,149.1 234.4,178.2 227,182.1 224.7,164.2 225.4,183.1 216.4,188.1 &#9;"/>
	<polygon class="st3_online-shopping-13-61aac" points="217.1,209.5 229.6,202.9 234.4,232 227,235.9 224.7,218 225.4,236.9 216.4,241.9 &#9;"/>
	
		<ellipse transform="matrix(0.2782 -0.9605 0.9605 0.2782 -33.1313 337.0337)" class="st4_online-shopping-13-61aac" cx="207.7" cy="190.6" rx="4.1" ry="2.6"/>
	
		<ellipse transform="matrix(0.2782 -0.9605 0.9605 0.2782 -85.4066 374.7238)" class="st3_online-shopping-13-61aac" cx="206.6" cy="244.2" rx="4.1" ry="2.6"/>
</g>
<g id="Character_online-shopping-13-61aac">
	<path class="st5_online-shopping-13-61aac" d="M271.2,313.4c0,0.2-4.7,10.9-5.7,11.5s-4.3-1.4-5.4-0.2s-2.5,3.7-0.1,4.7s9.8,2,11.1,1.4&#10;&#9;&#9;c1.3-0.7,2.5-1.5,3.6-2.4c0,0,0.7-5.7,1.4-4.9s0.5,7,1,7.1c0.7,0,1.5-0.1,2.1-0.3l-0.7-18"/>
	<path class="st5_online-shopping-13-61aac" d="M291.5,303.8c0,0.2-5,10.7-6.1,11.4s-4.3-1.6-5.4-0.4s-2.7,3.6-0.2,4.7s9.7,2.4,11,1.9&#10;&#9;&#9;c1.3-0.6,2.5-1.4,3.7-2.3c0,0,0.9-5.7,1.6-4.9s0.2,7,0.8,7.1c0.7,0.1,1.4,0,2.1-0.2v-18"/>
	<path class="st3_online-shopping-13-61aac" d="M273.6,215.4c0,0-14.9,76.3-13.7,94c0,0,3,11.8,28.6,7.9c0,0,2.2-8.9,1.2-23.9s-3.7-78.1-3.7-78.1L273.6,215.4&#10;&#9;&#9;z"/>
	<path class="st3_online-shopping-13-61aac" d="M276.3,305.6l3.9-91.1l15.4-1.4c0,0,6.7,23.5,5.2,34.8s1.7,26.3,2.5,34.2c0.7,7.1,0.9,19.3-1.5,24.8&#10;&#9;&#9;C293.4,309.1,284.5,308.6,276.3,305.6z"/>
	<path class="st10_online-shopping-13-61aac" d="M289.6,313c1.2-5.7,2-11.5,2.6-17.3c0.2-2.8,0.2-5.7,0-8.5c-0.3-2.9-0.7-5.8-1.2-8.7&#10;&#9;&#9;c-0.9-5.2-1.1-10.4-0.7-15.7c0.4-5.4,1.2-10.7,1.7-16.1c0.8-6,0.6-12.1-0.6-18.1c-0.2-0.8,1-1.1,1.2-0.3&#10;&#9;&#9;c2.4,10.7,0.1,21.5-0.9,32.3c-0.6,5.5-0.5,11.1,0.3,16.6c0.4,2.7,1,5.4,1.3,8.1c0.3,2.9,0.4,5.8,0.2,8.8&#10;&#9;&#9;c-0.5,6.5-1.4,12.9-2.7,19.3C290.7,314.1,289.5,313.8,289.6,313z"/>
	<path class="st5_online-shopping-13-61aac" d="M291.3,182.4c-1.6-0.2-31.8-20.8-32.7-20s-4.7,11.1-0.3,15s31.2,19.7,31.2,19.7"/>
	<path class="st5_online-shopping-13-61aac" d="M296.3,186.8l-12.5-11.2c-1.4,0.5-10.3-0.4-12.3,5.5c-1.3,3.8-1.8,8.6-2.4,11.3c0,0.1,2,0.9,2,1.1&#10;&#9;&#9;c0.7,5.9,0.6,11.9-0.3,17.7c1.1-0.2,2.2-0.6,3.2-1.1c0,0-0.7,5.2,0,6.8s17.3,3.5,21.2-1.4S296.3,186.8,296.3,186.8z"/>
	<path class="st6_online-shopping-13-61aac" d="M245.9,159c0,0,0-0.1,0-0.1c-0.2-0.5-0.3-0.9-0.4-1.4c-0.1-0.4-0.5-0.6-0.9-0.5c-0.1,0-0.2,0.1-0.3,0.2&#10;&#9;&#9;c-0.1,0.1-0.2,0.2-0.3,0.3c-0.1,0.3-0.2,0.7-0.2,1.1l0,0c0,0.2,0,0.5,0,0.7l0,0c0.3,1.2,1.1,2.3,2.2,2.9c-0.4,0.2-0.7,0.5-1.1,0.8&#10;&#9;&#9;c-1.1,1.7-0.4,3.6,0.7,5.4c0.1,0,0.3,0,0.4,0c1.3,0.5,2.7,0.8,4.1,1.1c1.1,0.3,2.2,0.4,3.3,0.5c1.1,0.1,2.2,0.4,3.3,0.9&#10;&#9;&#9;c0.1-1.9,0.3-3.8,0.6-5.7C253.3,163.5,249.5,161.4,245.9,159z"/>
	<path class="st6_online-shopping-13-61aac" d="M246,164.3c0.3-0.4-0.4-0.8-0.6-0.4c-0.2,0.3-0.4,0.7-0.6,1.1c-0.2,0.5-0.4,1.1-0.4,1.6c0,0.1,0,0.3,0,0.4l0,0&#10;&#9;&#9;c0,0.1,0,0.1,0,0.2c0,0.3,0.2,0.5,0.4,0.6c0.4,0.2,0.8-0.2,1-0.6c0.2-0.5,0.3-1,0.3-1.6c0.1-0.4,0-0.9-0.3-1.2L246,164.3z"/>
	<path class="st11_online-shopping-13-61aac" d="M256.1,170.3c-1-0.6-2.2-1-3.4-1c-1.6,0-3.3,0.4-4.3-1.2c-0.7-1-0.6-2.1-1.4-2.9c-0.2-0.2-0.4-0.3-0.6-0.5&#10;&#9;&#9;l-0.5-0.3c-0.3-0.1-0.5-0.3-0.6-0.6c-0.1-0.4,0.1-0.8,0.5-1c0,0,0,0,0.1,0c0.1,0,0.2,0,0.2,0c0.3,0,0.6,0.2,0.9,0.3h0&#10;&#9;&#9;c0.5,0.2,1,0.4,1.6,0.6c0.2,0.1,0.4,0.1,0.5-0.1c0.1-0.2,0.1-0.4-0.1-0.5c0,0,0,0,0,0c-1-0.5-3.3-1.8-4.3-0.6&#10;&#9;&#9;c-0.3,0.3-0.4,0.8-0.3,1.2l0,0c-0.2,0.7-0.4,1.4-0.5,2.1c-0.1,0.5-0.1,1,0,1.5c0.3,0.6,0.9,0.9,1.6,0.8c0,0.2,0.1,0.3,0.2,0.5&#10;&#9;&#9;c0.5,0.7,1.5,1,2.3,0.5c0.1,0,0.2-0.2,0.2-0.3c0.4,0.4,0.8,0.7,1.3,0.9c0.9,0.3,1.8,0.3,2.6,0.2c1.3-0.1,2.6,0.2,3.7,0.8&#10;&#9;&#9;c0.2,0,0.4-0.1,0.4-0.3c0,0,0,0,0,0C256.2,170.4,256.1,170.3,256.1,170.3z M245.3,167.6L245.3,167.6c-0.4,0.2-0.8-0.6-0.9-0.8&#10;&#9;&#9;c0-0.4,0-0.8,0.1-1.1c0-0.4,0.1-0.8,0.3-1.1c0.3,0.2,0.6,0.5,0.9,0.7l0,0C245.5,166,245.4,166.8,245.3,167.6z M247.4,168.7&#10;&#9;&#9;c-1,0.4-1.4-0.4-1.3-1.3c0-0.5,0.1-1.1,0.2-1.6l0.2,0.2c0.6,0.8,0.6,1.8,1.2,2.6C247.6,168.6,247.6,168.6,247.4,168.7L247.4,168.7z&#10;&#9;&#9;"/>
	<path class="st6_online-shopping-13-61aac" d="M274.9,156.9c-0.9,0.6-0.9,15.6,3.4,17.4c5.6,2.4,10-4.2,10.5-7.7S285.9,150,274.9,156.9z"/>
	<path class="st11_online-shopping-13-61aac" d="M304.2,181c-0.8-0.5-1.5-1.2-2-2c-0.3-1-0.4-2-0.4-3.1c-0.1-2.5-0.8-5.2-3.1-6.6c-1.4-0.9-3.6-0.1-4.8-1.4&#10;&#9;&#9;s-0.9-3.8-1.1-5.7c-1-9.8-15.4-11.6-20-3.6c-1.6,2.6-0.8,6,1.7,7.7c0.7,0.5,1.5,0.8,2.3,0.9c1.2,0.2,2.4,0.2,2.9,1.4&#10;&#9;&#9;c0.8,1.9-0.6,3.9-1.3,5.7c-1.1,2.7-1.4,6.5,1.2,8.4c1.3,0.8,2.8,1.3,4.3,1.6c0.6,0.1,1.2,0.5,1.6,0.9c0.7,0.9,0.3,2.1,0.1,3.1&#10;&#9;&#9;c-0.1,0.5-0.1,1.1,0,1.6c-0.2,1,0.1,2,0.8,2.8c1.6,1.9,4.5,2,6.7,1.9c2.6-0.1,5.2-0.8,7.6-1.9c2.1-1,4.7-2.4,5.8-4.6&#10;&#9;&#9;C307.7,185.5,306.3,182.8,304.2,181z"/>
	<polygon class="st4_online-shopping-13-61aac" points="285.6,259.9 257.4,244.2 245.2,247.9 264.7,262.8 276.7,268 &#9;"/>
	<polygon class="st9_online-shopping-13-61aac targetColor" points="275.5,265.7 245.2,247.9 242.9,276.5 273.9,294.5 &#9;" style="fill: rgb(115, 229, 255);"/>
	<polyline class="st9_online-shopping-13-61aac targetColor" points="275.5,265.7 285.6,259.9 286.5,287 273.9,294.5 &#9;" style="fill: rgb(115, 229, 255);"/>
	<path class="st10_online-shopping-13-61aac" d="M254.1,253.1c0,0,1.3-10.3,8.8-8.6s5.5,17.1,5.5,17.1l2,1.1c0,0,3.2-13.9-4.4-18.5s-13,2.8-13.7,7.9"/>
	<path class="st10_online-shopping-13-61aac" d="M276.9,255.1c-0.5-4.4-3.7-7.9-7.9-8.9l0.2,2.3c0,0,3.6,0.3,5.8,5.5L276.9,255.1z"/>
	<path class="st6_online-shopping-13-61aac" d="M271.9,230.9c-1.2,0,0.6-14.5-1.9-3.9c-0.7,2.1-2.6,3.7-4.9,3.9c-0.2,0.3-1.2,2.2-2.2,4.1&#10;&#9;&#9;c-1,3.6-2.1,7.1-3,10.7c0.2,0.3,0.2,0.7,0.2,1c0,0.7,0.1,1.3,0.2,1.9c0.3,1.3,1,2.5,2.5,1.9c0.2-0.1,0.4-0.2,0.6-0.3&#10;&#9;&#9;c0.4,0.9,1.4,1.3,2.3,0.9c0,0,0,0,0,0c0,0,0.1,0,0.1-0.1c0.5-0.2,0.9-0.7,1-1.2c0.5,0.4,1.1,0.4,1.6,0c0.4-0.3,0.6-0.8,0.7-1.3&#10;&#9;&#9;c0.3,0,0.5,0,0.8-0.1c1.1-0.5,1.4-2.1,1.5-3.2C271.9,240.5,272,235.7,271.9,230.9z"/>
	<path class="st6_online-shopping-13-61aac" d="M261.7,234.5c-0.9,1.7-1.7,3.4-2.3,5.2c-0.4,1.6,0.3,1.8,1.7,2.4c0.8,0.3,1.1-0.8,0.5-1.3&#10;&#9;&#9;c0.3-0.1,0.6-0.3,0.6-0.6c0-0.8,0.2-1.7,0.5-2.4c0-0.1,0.1-0.2,0.1-0.3c0.1-0.2,0-0.4-0.1-0.5l0.2-0.3c0.2-0.3,0.1-0.7-0.2-0.9l0,0&#10;&#9;&#9;c0.1-0.3,0.3-0.5,0.4-0.8C263.4,234,262,233.6,261.7,234.5z"/>
	<path class="st5_online-shopping-13-61aac" d="M274.4,238c2.1-8.4,5.8-41.3,5.8-41.3l-11.2-4.3c0,0-9.5,40.7-9.1,43.6C262.7,237.9,271.1,238.9,274.4,238z"/>
</g>
<g id="Shopping_Bag_online-shopping-13-61aac">
	<polygon class="st4_online-shopping-13-61aac" points="163.2,310.8 207.8,285.8 227.2,291.7 196.3,315.3 177.3,323.6 &#9;"/>
	<polygon class="st9_online-shopping-13-61aac targetColor" points="179.1,319.9 227.2,291.7 230.8,336.9 181.6,365.6 &#9;" style="fill: rgb(115, 229, 255);"/>
	<polyline class="st9_online-shopping-13-61aac targetColor" points="179.1,319.9 163.2,310.8 161.8,353.8 181.6,365.6 &#9;" style="fill: rgb(115, 229, 255);"/>
	<polyline class="st12_online-shopping-13-61aac" points="179.1,319.9 163.2,310.8 161.8,353.8 181.6,365.6 &#9;"/>
	<path class="st10_online-shopping-13-61aac" d="M213.1,300c0,0-2.1-16.2-14-13.6s-8.7,27.1-8.7,27.1l-3.1,1.7c0,0-5.1-22.1,6.9-29.2s20.5,4.4,21.7,12.5"/>
	<path class="st10_online-shopping-13-61aac" d="M175.6,303.8c0,0-4.2-17.7,10-22.5s15.8,8.1,15.8,8.1l-4,2.2c0,0,0-10-10.3-8.1s-8,18.3-8,18.3"/>
</g>
</svg>